<mxfile host="app.diagrams.net" agent="Mozilla/5.0 (Windows NT 10.0; Win64; x64) AppleWebKit/537.36 (KHTML, like Gecko) Chrome/129.0.0.0 Safari/537.36 Edg/129.0.0.0" version="24.7.17">
  <diagram id="C5RBs43oDa-KdzZeNtuy" name="Page-1">
    <mxGraphModel dx="657" dy="790" grid="1" gridSize="10" guides="1" tooltips="1" connect="1" arrows="1" fold="1" page="1" pageScale="1" pageWidth="827" pageHeight="1169" math="0" shadow="0">
      <root>
        <mxCell id="WIyWlLk6GJQsqaUBKTNV-0" />
        <mxCell id="WIyWlLk6GJQsqaUBKTNV-1" parent="WIyWlLk6GJQsqaUBKTNV-0" />
        <mxCell id="AhoDbNXk5PNvHm53ryTm-1" value="CategoyID (PK)&lt;div&gt;&lt;br&gt;&lt;div&gt;CategoryName&lt;/div&gt;&lt;/div&gt;&lt;div&gt;&lt;br&gt;&lt;/div&gt;&lt;div&gt;Description&lt;/div&gt;" style="whiteSpace=wrap;html=1;aspect=fixed;" vertex="1" parent="WIyWlLk6GJQsqaUBKTNV-1">
          <mxGeometry x="150" y="200" width="160" height="160" as="geometry" />
        </mxCell>
        <mxCell id="AhoDbNXk5PNvHm53ryTm-3" value="Categories" style="rounded=0;whiteSpace=wrap;html=1;" vertex="1" parent="WIyWlLk6GJQsqaUBKTNV-1">
          <mxGeometry x="150" y="200" width="160" height="30" as="geometry" />
        </mxCell>
        <mxCell id="AhoDbNXk5PNvHm53ryTm-4" value="ProductID (PK)&lt;div&gt;Name&lt;/div&gt;&lt;div&gt;Description&lt;/div&gt;&lt;div&gt;Price&lt;/div&gt;&lt;div&gt;StockQuantity&lt;/div&gt;&lt;div&gt;CategoryID (FK)&lt;/div&gt;" style="whiteSpace=wrap;html=1;aspect=fixed;" vertex="1" parent="WIyWlLk6GJQsqaUBKTNV-1">
          <mxGeometry x="510" y="190" width="160" height="160" as="geometry" />
        </mxCell>
        <mxCell id="AhoDbNXk5PNvHm53ryTm-6" value="OrderID (PK)&lt;div&gt;&lt;div&gt;CustomerID (FK)&lt;/div&gt;&lt;div&gt;&amp;nbsp;OrderDate&lt;/div&gt;&lt;div&gt;&amp;nbsp;TotalAmount&lt;/div&gt;&lt;div&gt;&amp;nbsp;&lt;span style=&quot;background-color: initial;&quot;&gt;Status&amp;nbsp; &amp;nbsp;&lt;/span&gt;&lt;/div&gt;&lt;/div&gt;" style="whiteSpace=wrap;html=1;aspect=fixed;" vertex="1" parent="WIyWlLk6GJQsqaUBKTNV-1">
          <mxGeometry x="200" y="440" width="160" height="160" as="geometry" />
        </mxCell>
        <mxCell id="AhoDbNXk5PNvHm53ryTm-7" value="Order_Item_ID (PK)&lt;div&gt;&lt;div&gt;Order_ID (FK)&lt;/div&gt;&lt;div&gt;&lt;div&gt;Product_ID (FK)&lt;/div&gt;&lt;div&gt;&lt;div&gt;&lt;span style=&quot;background-color: initial;&quot;&gt;Quantity&lt;/span&gt;&lt;/div&gt;&lt;div&gt;&lt;div&gt;&lt;div&gt;Subtotal&lt;/div&gt;&lt;/div&gt;&lt;/div&gt;&lt;/div&gt;&lt;/div&gt;&lt;/div&gt;" style="whiteSpace=wrap;html=1;aspect=fixed;" vertex="1" parent="WIyWlLk6GJQsqaUBKTNV-1">
          <mxGeometry x="520" y="440" width="160" height="160" as="geometry" />
        </mxCell>
        <mxCell id="AhoDbNXk5PNvHm53ryTm-8" value="CustomerID (PK)&lt;div&gt;&amp;nbsp;FirstName&lt;span style=&quot;background-color: initial;&quot;&gt;&amp;nbsp;&lt;/span&gt;&lt;/div&gt;&lt;div&gt;&lt;div&gt;LastName&amp;nbsp;&lt;/div&gt;&lt;div&gt;Email&lt;span style=&quot;background-color: initial;&quot;&gt;&amp;nbsp;&lt;/span&gt;&lt;/div&gt;&lt;div&gt;&lt;div&gt;&amp;nbsp;PhoneNumber&lt;span style=&quot;background-color: initial;&quot;&gt;&amp;nbsp;&lt;/span&gt;&lt;/div&gt;&lt;div&gt;&lt;div&gt;Address&amp;nbsp;&amp;nbsp;&lt;br&gt;&lt;/div&gt;&lt;/div&gt;&lt;/div&gt;&lt;/div&gt;" style="whiteSpace=wrap;html=1;aspect=fixed;" vertex="1" parent="WIyWlLk6GJQsqaUBKTNV-1">
          <mxGeometry x="200" y="680" width="160" height="160" as="geometry" />
        </mxCell>
        <mxCell id="AhoDbNXk5PNvHm53ryTm-9" value="Payment_ID (PK)&amp;nbsp;&lt;div&gt;Order_ID (FK)&amp;nbsp;&lt;div&gt;&lt;span style=&quot;background-color: initial;&quot;&gt;Payment_Date&amp;nbsp;&lt;/span&gt;&lt;div&gt;&lt;div&gt;Amount&amp;nbsp;&lt;div&gt;&lt;span style=&quot;background-color: initial;&quot;&gt;Payment_Method&amp;nbsp;&lt;/span&gt;&lt;/div&gt;&lt;/div&gt;&lt;/div&gt;&lt;/div&gt;&lt;/div&gt;" style="whiteSpace=wrap;html=1;aspect=fixed;" vertex="1" parent="WIyWlLk6GJQsqaUBKTNV-1">
          <mxGeometry x="520" y="680" width="160" height="160" as="geometry" />
        </mxCell>
        <mxCell id="AhoDbNXk5PNvHm53ryTm-10" value="Products" style="rounded=0;whiteSpace=wrap;html=1;" vertex="1" parent="WIyWlLk6GJQsqaUBKTNV-1">
          <mxGeometry x="510" y="190" width="160" height="30" as="geometry" />
        </mxCell>
        <mxCell id="AhoDbNXk5PNvHm53ryTm-11" value="Customers" style="rounded=0;whiteSpace=wrap;html=1;" vertex="1" parent="WIyWlLk6GJQsqaUBKTNV-1">
          <mxGeometry x="200" y="680" width="160" height="30" as="geometry" />
        </mxCell>
        <mxCell id="AhoDbNXk5PNvHm53ryTm-12" value="OrdersItems" style="rounded=0;whiteSpace=wrap;html=1;" vertex="1" parent="WIyWlLk6GJQsqaUBKTNV-1">
          <mxGeometry x="520" y="440" width="160" height="30" as="geometry" />
        </mxCell>
        <mxCell id="AhoDbNXk5PNvHm53ryTm-13" value="Orders" style="rounded=0;whiteSpace=wrap;html=1;" vertex="1" parent="WIyWlLk6GJQsqaUBKTNV-1">
          <mxGeometry x="200" y="440" width="160" height="30" as="geometry" />
        </mxCell>
        <mxCell id="AhoDbNXk5PNvHm53ryTm-16" value="Payments" style="rounded=0;whiteSpace=wrap;html=1;" vertex="1" parent="WIyWlLk6GJQsqaUBKTNV-1">
          <mxGeometry x="520" y="680" width="160" height="30" as="geometry" />
        </mxCell>
        <mxCell id="AhoDbNXk5PNvHm53ryTm-18" value="" style="endArrow=classic;html=1;rounded=0;fontSize=12;startSize=8;endSize=8;curved=1;exitX=1.019;exitY=0.438;exitDx=0;exitDy=0;exitPerimeter=0;entryX=-0.012;entryY=0.563;entryDx=0;entryDy=0;entryPerimeter=0;" edge="1" parent="WIyWlLk6GJQsqaUBKTNV-1" source="AhoDbNXk5PNvHm53ryTm-1" target="AhoDbNXk5PNvHm53ryTm-4">
          <mxGeometry width="50" height="50" relative="1" as="geometry">
            <mxPoint x="430" y="570" as="sourcePoint" />
            <mxPoint x="480" y="520" as="targetPoint" />
          </mxGeometry>
        </mxCell>
        <mxCell id="AhoDbNXk5PNvHm53ryTm-19" value="" style="endArrow=classic;html=1;rounded=0;fontSize=12;startSize=8;endSize=8;curved=1;exitX=0.5;exitY=0;exitDx=0;exitDy=0;entryX=0.5;entryY=1;entryDx=0;entryDy=0;" edge="1" parent="WIyWlLk6GJQsqaUBKTNV-1" source="AhoDbNXk5PNvHm53ryTm-11" target="AhoDbNXk5PNvHm53ryTm-6">
          <mxGeometry width="50" height="50" relative="1" as="geometry">
            <mxPoint x="430" y="570" as="sourcePoint" />
            <mxPoint x="480" y="520" as="targetPoint" />
          </mxGeometry>
        </mxCell>
        <mxCell id="AhoDbNXk5PNvHm53ryTm-20" value="" style="endArrow=classic;html=1;rounded=0;fontSize=12;startSize=8;endSize=8;curved=1;entryX=0;entryY=0.5;entryDx=0;entryDy=0;exitX=0;exitY=1;exitDx=0;exitDy=0;" edge="1" parent="WIyWlLk6GJQsqaUBKTNV-1" source="AhoDbNXk5PNvHm53ryTm-25" target="AhoDbNXk5PNvHm53ryTm-7">
          <mxGeometry width="50" height="50" relative="1" as="geometry">
            <mxPoint x="430" y="570" as="sourcePoint" />
            <mxPoint x="480" y="520" as="targetPoint" />
          </mxGeometry>
        </mxCell>
        <mxCell id="AhoDbNXk5PNvHm53ryTm-21" value="" style="endArrow=classic;html=1;rounded=0;fontSize=12;startSize=8;endSize=8;curved=1;entryX=0.5;entryY=0;entryDx=0;entryDy=0;" edge="1" parent="WIyWlLk6GJQsqaUBKTNV-1" source="AhoDbNXk5PNvHm53ryTm-4" target="AhoDbNXk5PNvHm53ryTm-12">
          <mxGeometry width="50" height="50" relative="1" as="geometry">
            <mxPoint x="430" y="570" as="sourcePoint" />
            <mxPoint x="480" y="520" as="targetPoint" />
            <Array as="points" />
          </mxGeometry>
        </mxCell>
        <mxCell id="AhoDbNXk5PNvHm53ryTm-22" value="" style="endArrow=classic;html=1;rounded=0;fontSize=12;startSize=8;endSize=8;curved=1;exitX=1;exitY=1;exitDx=0;exitDy=0;entryX=0;entryY=0;entryDx=0;entryDy=0;" edge="1" parent="WIyWlLk6GJQsqaUBKTNV-1" source="AhoDbNXk5PNvHm53ryTm-6" target="AhoDbNXk5PNvHm53ryTm-16">
          <mxGeometry width="50" height="50" relative="1" as="geometry">
            <mxPoint x="430" y="570" as="sourcePoint" />
            <mxPoint x="480" y="520" as="targetPoint" />
          </mxGeometry>
        </mxCell>
        <mxCell id="AhoDbNXk5PNvHm53ryTm-23" value="1" style="text;strokeColor=none;fillColor=none;html=1;align=center;verticalAlign=middle;whiteSpace=wrap;rounded=0;fontSize=16;" vertex="1" parent="WIyWlLk6GJQsqaUBKTNV-1">
          <mxGeometry x="290" y="240" width="60" height="30" as="geometry" />
        </mxCell>
        <mxCell id="AhoDbNXk5PNvHm53ryTm-24" value="1" style="text;strokeColor=none;fillColor=none;html=1;align=center;verticalAlign=middle;whiteSpace=wrap;rounded=0;fontSize=16;" vertex="1" parent="WIyWlLk6GJQsqaUBKTNV-1">
          <mxGeometry x="350" y="570" width="60" height="30" as="geometry" />
        </mxCell>
        <mxCell id="AhoDbNXk5PNvHm53ryTm-28" value="" style="endArrow=classic;html=1;rounded=0;fontSize=12;startSize=8;endSize=8;curved=1;exitX=1;exitY=0.5;exitDx=0;exitDy=0;entryX=0;entryY=0.5;entryDx=0;entryDy=0;" edge="1" parent="WIyWlLk6GJQsqaUBKTNV-1" source="AhoDbNXk5PNvHm53ryTm-6" target="AhoDbNXk5PNvHm53ryTm-25">
          <mxGeometry width="50" height="50" relative="1" as="geometry">
            <mxPoint x="360" y="520" as="sourcePoint" />
            <mxPoint x="520" y="520" as="targetPoint" />
          </mxGeometry>
        </mxCell>
        <mxCell id="AhoDbNXk5PNvHm53ryTm-25" value="1" style="text;strokeColor=none;fillColor=none;html=1;align=center;verticalAlign=middle;whiteSpace=wrap;rounded=0;fontSize=16;" vertex="1" parent="WIyWlLk6GJQsqaUBKTNV-1">
          <mxGeometry x="340" y="490" width="60" height="30" as="geometry" />
        </mxCell>
        <mxCell id="AhoDbNXk5PNvHm53ryTm-29" value="1" style="text;strokeColor=none;fillColor=none;html=1;align=center;verticalAlign=middle;whiteSpace=wrap;rounded=0;fontSize=16;" vertex="1" parent="WIyWlLk6GJQsqaUBKTNV-1">
          <mxGeometry x="280" y="650" width="60" height="30" as="geometry" />
        </mxCell>
        <mxCell id="AhoDbNXk5PNvHm53ryTm-30" value="1" style="text;strokeColor=none;fillColor=none;html=1;align=center;verticalAlign=middle;whiteSpace=wrap;rounded=0;fontSize=16;" vertex="1" parent="WIyWlLk6GJQsqaUBKTNV-1">
          <mxGeometry x="520" y="650" width="60" height="30" as="geometry" />
        </mxCell>
        <mxCell id="AhoDbNXk5PNvHm53ryTm-33" value="M" style="text;strokeColor=none;fillColor=none;html=1;align=center;verticalAlign=middle;whiteSpace=wrap;rounded=0;fontSize=16;" vertex="1" parent="WIyWlLk6GJQsqaUBKTNV-1">
          <mxGeometry x="450" y="240" width="60" height="30" as="geometry" />
        </mxCell>
        <mxCell id="AhoDbNXk5PNvHm53ryTm-34" value="M" style="text;strokeColor=none;fillColor=none;html=1;align=center;verticalAlign=middle;whiteSpace=wrap;rounded=0;fontSize=16;" vertex="1" parent="WIyWlLk6GJQsqaUBKTNV-1">
          <mxGeometry x="470" y="490" width="60" height="30" as="geometry" />
        </mxCell>
        <mxCell id="AhoDbNXk5PNvHm53ryTm-35" value="M" style="text;strokeColor=none;fillColor=none;html=1;align=center;verticalAlign=middle;whiteSpace=wrap;rounded=0;fontSize=16;" vertex="1" parent="WIyWlLk6GJQsqaUBKTNV-1">
          <mxGeometry x="270" y="600" width="60" height="30" as="geometry" />
        </mxCell>
        <mxCell id="AhoDbNXk5PNvHm53ryTm-36" value="M" style="text;strokeColor=none;fillColor=none;html=1;align=center;verticalAlign=middle;whiteSpace=wrap;rounded=0;fontSize=16;" vertex="1" parent="WIyWlLk6GJQsqaUBKTNV-1">
          <mxGeometry x="590" y="410" width="60" height="30" as="geometry" />
        </mxCell>
        <mxCell id="AhoDbNXk5PNvHm53ryTm-37" value="1" style="text;strokeColor=none;fillColor=none;html=1;align=center;verticalAlign=middle;whiteSpace=wrap;rounded=0;fontSize=16;" vertex="1" parent="WIyWlLk6GJQsqaUBKTNV-1">
          <mxGeometry x="550" y="350" width="60" height="30" as="geometry" />
        </mxCell>
      </root>
    </mxGraphModel>
  </diagram>
</mxfile>
